<?xml version="1.0" encoding="UTF-8"?>
<svg width="256px" height="256px" viewBox="0 0 256 256" version="1.1" xmlns="http://www.w3.org/2000/svg" xmlns:xlink="http://www.w3.org/1999/xlink">
    <!-- Generator: Sketch 57.1 (83088) - https://sketch.com -->
    <title>icon copy</title>
    <desc>Created with Sketch.</desc>
    <g id="icon-copy" stroke="none" stroke-width="1" fill="none" fill-rule="evenodd">
        <circle id="Oval" fill="#4A90E2" cx="128" cy="128" r="128"></circle>
        <g id="netlify-seeklogo.com" transform="translate(62.000000, 24.000000)" fill="#FFFFFF" fill-rule="nonzero">
            <path d="M95.6647606,45.8074415 L95.6165115,45.7867859 C95.58894,45.7764582 95.5613691,45.7661303 95.5372445,45.7420321 C95.4571004,45.6560427 95.4214506,45.5377658 95.4407458,45.4218705 L98.1048013,29.1521525 L110.597948,41.6350128 L97.6050756,47.1569399 C97.5689674,47.1714846 97.5302671,47.1785133 97.4913447,47.1776751 L97.4396491,47.1776751 C97.422417,47.1672677 97.4051853,47.1534973 97.3707214,47.1190714 C96.8871905,46.5812875 96.3089588,46.1367134 95.6647606,45.8074415 Z M113.785854,44.8159733 L127.144043,58.159483 C129.918383,60.9342169 131.307276,62.3181415 131.813895,63.9223921 C131.889716,64.1599313 131.95175,64.3974704 132,64.6418952 L100.076134,51.1365832 C100.058979,51.1295072 100.041746,51.1226216 100.024438,51.1159276 C99.896922,51.0642886 99.7487272,51.0057645 99.7487272,50.8749457 C99.7487272,50.744127 99.9003684,50.6821602 100.027885,50.6305213 L100.069241,50.6133083 L113.785854,44.8159733 Z M131.455471,68.9244867 C130.766194,70.218904 129.422104,71.5615167 127.14749,73.837074 L112.086786,88.8777846 L92.607817,84.8258471 L92.5044254,84.8051912 C92.3321061,84.7776506 92.149448,84.7466672 92.149448,84.5917503 C91.9999054,82.9692223 91.1822881,81.4816725 89.8920655,80.4847307 C89.8127985,80.4055513 89.8334771,80.2816177 89.8576016,80.1680121 C89.8576016,80.150799 89.8576016,80.1335859 89.8644945,80.1198156 L93.5280019,57.6534213 L93.5417876,57.5776837 C93.5624657,57.4055542 93.5934832,57.2058836 93.7485708,57.2058836 C95.3344724,57.0088132 96.7747842,56.1840241 97.7463774,54.916556 C97.7773949,54.8821298 97.798073,54.8442613 97.8394297,54.8236058 C97.9497142,54.7719665 98.0806767,54.8236058 98.1944076,54.8718018 L131.452025,68.9244867 L131.455471,68.9244867 Z M108.623169,92.3375959 L83.8574452,117.076105 L88.0964989,91.0500643 L88.1033918,91.0156381 C88.1068382,90.9812123 88.1137305,90.9467861 88.1240699,90.9158027 C88.1585337,90.8331805 88.2481395,90.7987543 88.3342995,90.7643286 L88.3756562,90.7471155 C89.3038219,90.3515424 90.1247346,89.7415488 90.7708936,88.9672925 C90.8536071,88.8708995 90.9535523,88.7779493 91.0810684,88.7607362 C91.1141643,88.7553397 91.1479176,88.7553397 91.1810135,88.7607362 L108.619723,92.3410382 L108.623169,92.3375959 Z M78.6154932,122.312296 L75.8239211,125.100801 L44.9615415,80.5466974 C44.9503811,80.5304011 44.9388907,80.5143322 44.9270776,80.4985015 C44.8788282,80.4330918 44.8271325,80.3676827 44.8374716,80.2919452 C44.840918,80.236864 44.8753819,80.1886675 44.9132921,80.1473562 L44.9477559,80.1026025 C45.0408083,79.9648987 45.1200752,79.8271948 45.2062348,79.679163 L45.2751625,79.5586723 L45.2855017,79.5483443 C45.3337511,79.4657221 45.3785541,79.3865422 45.4612673,79.3417885 C45.5336414,79.3073623 45.6335866,79.3211326 45.7128534,79.3383457 L79.9044412,86.3819013 C80.0000448,86.3967518 80.0902312,86.4358687 80.1663663,86.4955069 C80.2111695,86.5402606 80.2215088,86.5884571 80.2318476,86.6435387 C80.715309,88.4707332 82.0259782,89.9671765 83.7747317,90.6885916 C83.8712304,90.7367875 83.8298737,90.843508 83.785071,90.9571141 C83.7627177,91.0069044 83.7453994,91.058801 83.733375,91.1120311 C83.302577,93.7284051 79.6080522,116.236111 78.6154932,122.312296 Z M72.7842091,128.13373 C70.7267174,130.168305 69.5135899,131.245838 68.1419284,131.679605 C66.7894843,132.106798 65.3380319,132.106798 63.9855877,131.679605 C62.3795726,131.170101 60.9906789,129.786176 58.216339,127.011442 L27.2229968,96.0521589 L35.3185557,83.5107744 C35.3564659,83.4488077 35.3943761,83.393726 35.456411,83.3489724 C35.5425707,83.2870056 35.6666405,83.3145467 35.7700321,83.3489724 C37.6281867,83.9089499 39.6232408,83.8079688 41.4152111,83.0632367 C41.5082635,83.028969 41.6013159,83.0047127 41.67369,83.0701218 C41.7098813,83.1031208 41.7422503,83.1400731 41.7701887,83.1802851 L72.7842091,128.137172 L72.7842091,128.13373 Z M24.2349808,93.0674265 L17.1250881,85.9653469 L31.1656615,79.9821118 C31.2015503,79.9664791 31.2402407,79.9582811 31.2793922,79.9580135 C31.3965693,79.9580135 31.465497,80.075062 31.5275319,80.1817824 C31.6686338,80.3986259 31.8180892,80.6099301 31.975562,80.8152205 L32.020365,80.8703021 C32.0617216,80.9288261 32.0341505,80.98735 31.9927939,81.0424317 L24.2384272,93.0674265 L24.2349808,93.0674265 Z M13.9785384,82.8222547 L4.98347302,73.837074 C3.45327798,72.3085609 2.34354194,71.200044 1.57155166,70.2464446 L28.9220647,75.9129607 C28.9564217,75.9193214 28.9908913,75.9250598 29.0254562,75.9301738 C29.1943291,75.9577143 29.3804339,75.9886977 29.3804339,76.1470575 C29.3804339,76.3191876 29.1770972,76.398367 29.004778,76.4637766 L28.9255111,76.4982023 L13.9785384,82.8222547 Z M0,65.6264781 C0.0311696465,65.047672 0.13538558,64.4751143 0.310174669,63.9223921 C0.820239683,62.3181415 2.20568654,60.9342169 4.98347302,58.159483 L16.4943996,46.6612058 C21.794365,54.3446706 27.1087003,62.0182349 32.4373776,69.6818584 C32.53043,69.805792 32.6338216,69.9434958 32.5269836,70.0467739 C32.0238114,70.6010321 31.5206391,71.2069292 31.1656615,71.8644655 C31.1271517,71.9489847 31.0678753,72.0224066 30.9933422,72.0779064 C30.9485392,72.1054475 30.9002898,72.0951195 30.848594,72.0847921 L30.8417013,72.0847921 L0,65.6230353 L0,65.6264781 Z M19.575468,43.5835232 L35.053184,28.1228157 C36.5075586,28.7596964 41.8012062,30.9939424 46.5365395,32.9906493 C50.1207801,34.5053924 53.3879533,35.8824316 54.4149762,36.3299693 C54.5183678,36.3712805 54.61142,36.4125916 54.6562232,36.5158696 C54.6837942,36.5778363 54.6700084,36.6570161 54.6562232,36.7224255 C54.1585337,38.9894457 54.8359257,41.3544782 56.4586827,43.0154945 C56.5620743,43.1187725 56.4586827,43.2668042 56.3690763,43.3941803 L56.3208272,43.4664749 L40.6053106,67.7815446 C40.5639539,67.8503966 40.5260437,67.9089205 40.457116,67.9536742 C40.3744028,68.0053135 40.2572257,67.9812153 40.1607269,67.957117 C39.549493,67.7971526 38.9211356,67.711614 38.2893397,67.7023647 C37.7241325,67.7023647 37.1106759,67.8056424 36.4903266,67.9192485 L36.4868802,67.9192485 C36.4179525,67.9295759 36.3559176,67.9433467 36.3007754,67.9020354 C36.2398722,67.8523178 36.1874896,67.7930163 36.1456881,67.726463 L19.575468,43.5835232 Z M38.1790554,25.0003794 L58.216339,4.98511475 C60.9906789,2.21382338 62.3795726,0.826456392 63.9855877,0.320394492 C65.3380319,-0.106798164 66.7894843,-0.106798164 68.1419284,0.320394492 C69.7479441,0.826456392 71.1368372,2.21382338 73.9111771,4.98511475 L78.2536224,9.32278817 L64.0028199,31.3691856 C63.9675656,31.4333662 63.9194676,31.4896142 63.861518,31.5344303 C63.7753581,31.5929545 63.6547349,31.5688563 63.5513433,31.5344303 C61.2703369,30.8429711 58.794699,31.3195229 56.9342838,32.8081916 C56.841231,32.9045843 56.7033761,32.8495027 56.5861988,32.7978638 C54.7251509,31.9888533 40.2503329,25.8782419 38.1790554,25.0003794 Z M81.2795486,12.3453892 L94.4378475,25.4892283 L91.2671734,45.1051515 L91.2671734,45.1567905 C91.2643421,45.2014961 91.2550557,45.2455581 91.2396019,45.2876092 C91.2051381,45.3564612 91.1362103,45.3702316 91.0672826,45.3908872 C90.389376,45.5960023 89.7509028,45.9137242 89.1786638,46.3307164 C89.1540623,46.3482294 89.1310025,46.3678086 89.109736,46.3892406 C89.0718257,46.4305518 89.0339154,46.4684204 88.9718806,46.4754927 C88.9213911,46.4768638 88.8710738,46.4686816 88.8236858,46.4512073 L68.7726167,37.9411052 L68.7347069,37.9238922 C68.6071903,37.8722532 68.4555496,37.8102864 68.4555496,37.6794677 C68.3376942,36.5633232 67.9727539,35.4873438 67.38717,34.5294906 C67.2906713,34.371131 67.1838332,34.2058863 67.2665467,34.0440842 L81.2795486,12.3453892 Z M67.7283621,41.9723874 L86.5249471,49.9247887 C86.6283387,49.9729851 86.7420696,50.0177389 86.7868722,50.1244594 C86.8048082,50.1886419 86.8048082,50.256505 86.7868722,50.3206875 C86.7317303,50.5960953 86.6834806,50.9093717 86.6834806,51.2260907 L86.6834806,51.7528084 C86.6834806,51.8836271 86.5490716,51.9387087 86.425002,51.9903475 L86.3870917,52.0041178 C83.409415,53.2744363 44.5824391,69.8126771 44.5238505,69.8126771 C44.465262,69.8126771 44.4032271,69.8126771 44.3446385,69.7541532 C44.2412469,69.650875 44.3446385,69.506286 44.4376909,69.3754673 C44.4541421,69.3527762 44.4702272,69.3298227 44.4859403,69.3066154 L59.9326391,45.4149853 L59.9602101,45.3736742 C60.0498159,45.229085 60.1532075,45.0672829 60.3186339,45.0672829 L60.4737215,45.0913811 C60.8252525,45.1395775 61.1354272,45.1843313 61.4490484,45.1843313 C63.7925903,45.1843313 65.9638129,44.0448314 67.2734396,42.0963209 C67.3046421,42.0442883 67.3442339,41.9977608 67.3906164,41.958617 C67.4836687,41.889765 67.6215241,41.924191 67.7283621,41.9723874 Z M46.2022401,73.5926497 L88.5238504,55.5637644 C88.5238504,55.5637644 88.5858853,55.5637644 88.6444742,55.6222883 C88.8753819,55.8529424 89.0718257,56.0078593 89.2613772,56.1524483 L89.3544295,56.2109728 C89.4405889,56.2591687 89.5267488,56.3142504 89.5336417,56.4037582 C89.5336417,56.4381839 89.5336417,56.4588399 89.5267488,56.4898233 L85.9011512,78.735891 L85.887366,78.8253989 C85.8632414,78.9975284 85.8391163,79.1937567 85.6771364,79.1937567 C83.7147439,79.3260677 81.9441207,80.4171601 80.9452493,82.1096372 L80.9280177,82.1371778 C80.8797681,82.2163577 80.8349649,82.2920948 80.7556984,82.3334061 C80.6833242,82.3678318 80.590272,82.3540615 80.5144514,82.3368484 L46.7640009,75.3828007 C46.7295371,75.3759156 46.2401504,73.5960926 46.2022401,73.5926497 Z" id="Shape"></path>
        </g>
        <text id="Deploy" font-family="MarkPro-Bold, Mark Pro" font-size="40" font-weight="bold" fill="#FFFFFF">
            <tspan x="63.38" y="207">Deploy</tspan>
        </text>
    </g>
</svg>