<?xml version="1.0" encoding="UTF-8"?>
<svg width="256px" height="256px" viewBox="0 0 256 256" version="1.1" xmlns="http://www.w3.org/2000/svg" xmlns:xlink="http://www.w3.org/1999/xlink">
    <!-- Generator: Sketch 57.1 (83088) - https://sketch.com -->
    <title>icon-mask</title>
    <desc>Created with Sketch.</desc>
    <g id="icon-mask" stroke="none" stroke-width="1" fill="none" fill-rule="evenodd">
        <path d="M128,0 C198.692448,0 256,57.307552 256,128 C256,198.692448 198.692448,256 128,256 C57.307552,256 0,198.692448 0,128 C0,57.307552 57.307552,0 128,0 Z M181.240001,187.619997 L175.32,187.619997 L183.680001,202.879999 L176.9,215.080001 L182.620001,215.080001 L197.440004,187.619997 L191.720003,187.619997 L186.560002,197.579998 L181.240001,187.619997 Z M130.440002,187.099997 C127.780002,187.099997 125.920001,188.179997 124.660001,189.759997 L124.660001,189.759997 L124.660001,187.619997 L119.56,187.619997 L119.56,215.000001 L124.760001,215.000001 L124.760001,204.98 C126.020002,206.48 127.860002,207.5 130.460002,207.5 C135.800003,207.5 139.840004,203.119999 139.840004,197.299998 C139.840004,191.479997 135.800003,187.099997 130.440002,187.099997 Z M164.060002,187.099997 C158.040001,187.099997 153.6,191.459997 153.6,197.299998 C153.6,203.139999 158.040001,207.5 164.060002,207.5 C170.1,207.5 174.560004,203.139999 174.560004,197.299998 C174.560004,191.459997 170.1,187.099997 164.060002,187.099997 Z M105.880002,187.099997 C100.08,187.099997 96.0800003,191.259997 96.0800003,197.359998 C96.0800003,203.459999 100.200001,207.5 106.140002,207.5 C109.400002,207.5 112.200003,206.58 114.400003,204.56 L114.400003,204.56 L111.340003,201.199999 C109.940003,202.379999 108.120002,203.059999 106.440002,203.059999 C103.980002,203.059999 102.020001,201.839999 101.460001,199.039999 L101.460001,199.039999 L115.200003,199.039999 C115.260003,198.599997 115.300003,197.879999 115.300003,197.279998 C115.280003,191.239997 111.460003,187.099997 105.880002,187.099997 Z M149.320001,178.199995 L144.1,178.199995 L144.1,207 L149.320001,207 L149.320001,178.199995 Z M78.1000024,178.999995 L66.5600005,178.999995 L66.5600005,206.999995 L78.1000024,206.999995 C86.8600038,206.999995 92.6400048,201.439999 92.6400048,192.999995 C92.6400048,184.559996 86.8600038,178.999995 78.1000024,178.999995 L78.1000024,178.999995 Z M164.060002,191.959998 C167.000002,191.959998 169.220003,194.159998 169.220003,197.299998 C169.220003,200.439999 167.000002,202.639999 164.060002,202.639999 C161.120001,202.639999 158.920001,200.439999 158.920001,197.299998 C158.920001,194.159998 161.120001,191.959998 164.060002,191.959998 Z M129.480002,191.959998 C132.560003,191.959998 134.480003,194.339998 134.480003,197.299998 C134.480003,200.259999 132.560003,202.639999 129.480002,202.639999 C126.520002,202.639999 124.500001,200.359999 124.500001,197.299998 C124.500001,194.239998 126.520002,191.959998 129.480002,191.959998 Z M78.0400024,184.219996 C83.9400034,184.219996 86.8000038,187.859997 86.8000038,192.999998 C86.8000038,198.079999 83.9400034,201.779999 78.0400024,201.779999 L78.0400024,201.779999 L72.1400014,201.779999 L72.1400014,184.219996 Z M105.840002,191.599997 C108.080002,191.599997 109.580002,192.999998 110.060003,195.479998 L110.060003,195.479998 L101.480001,195.479998 C101.940001,193.079998 103.380001,191.599997 105.840002,191.599997 Z M103.67369,107.070122 C103.601316,107.004713 103.508264,107.028969 103.415211,107.063237 C101.623241,107.807969 99.6281867,107.90895 97.7700321,107.348972 C97.6666405,107.314547 97.5425707,107.287006 97.456411,107.348972 C97.3943761,107.393726 97.3564659,107.448808 97.3185557,107.510774 L97.3185557,107.510774 L89.2229968,120.052159 L120.216339,151.011442 C122.990679,153.786176 124.379573,155.170101 125.985588,155.679605 C127.338032,156.106798 128.789484,156.106798 130.141928,155.679605 C131.453952,155.264697 132.620928,154.260787 134.520547,152.393707 L134.520547,152.393707 L134.782,152.135 L103.770189,107.180285 C103.74225,107.140073 103.709881,107.103121 103.67369,107.070122 Z M134.784209,152.13373 L134.782,152.135 L134.784209,152.137172 L134.784209,152.13373 Z M107.712853,103.338346 C107.633587,103.321133 107.533641,103.307362 107.461267,103.341789 C107.378554,103.386542 107.333751,103.465722 107.285502,103.548344 L107.285502,103.548344 L107.275163,103.558672 L107.206235,103.679163 C107.120075,103.827195 107.040808,103.964899 106.947756,104.102603 L106.947756,104.102603 L106.913292,104.147356 C106.875382,104.188668 106.840918,104.236864 106.837472,104.291945 C106.827132,104.367683 106.878828,104.433092 106.927078,104.498501 L106.927078,104.498501 L106.961541,104.546697 L137.823921,149.100801 L140.615493,146.312296 C141.608052,140.236111 145.302577,117.728405 145.733375,115.112031 C145.745399,115.058801 145.762718,115.006904 145.785071,114.957114 C145.829874,114.843508 145.87123,114.736788 145.774732,114.688592 C144.025978,113.967176 142.715309,112.470733 142.231848,110.643539 C142.221509,110.588457 142.21117,110.540261 142.166366,110.495507 C142.090231,110.435869 142.000045,110.396752 141.904441,110.381901 L141.904441,110.381901 Z M153.131041,112.756689 L153.081068,112.760736 C152.953552,112.777949 152.853607,112.870899 152.770894,112.967292 C152.124735,113.741549 151.303822,114.351542 150.375656,114.747116 L150.375656,114.747116 L150.334299,114.764329 C150.24814,114.798754 150.158534,114.833181 150.12407,114.915803 C150.113731,114.946786 150.106838,114.981212 150.103392,115.015638 L150.103392,115.015638 L150.096499,115.050064 L145.857445,141.076105 L170.619723,116.341038 L153.181014,112.760736 C153.147918,112.75534 153.114164,112.75534 153.081068,112.760736 Z M93.2793922,103.958014 C93.2402407,103.958281 93.2015503,103.966479 93.1656615,103.982112 L93.1656615,103.982112 L79.1250881,109.965347 L86.2349808,117.067426 L86.2384272,117.067426 L93.9927939,105.042432 C94.0341505,104.98735 94.0617216,104.928826 94.020365,104.870302 L94.020365,104.870302 L93.975562,104.81522 C93.8180892,104.60993 93.6686338,104.398626 93.5275319,104.181782 C93.465497,104.075062 93.3965693,103.958014 93.2793922,103.958014 Z M160.194408,78.8718018 C160.080677,78.8236058 159.949714,78.7719665 159.83943,78.8236058 C159.798073,78.8442613 159.777395,78.8821298 159.746377,78.916556 C158.774784,80.1840241 157.334472,81.0088132 155.748571,81.2058836 C155.593483,81.2058836 155.562466,81.4055542 155.541788,81.5776837 L155.541788,81.5776837 L155.528002,81.6534213 L151.864495,104.119816 C151.857602,104.133586 151.857602,104.150799 151.857602,104.168012 C151.833477,104.281618 151.812798,104.405551 151.892065,104.484731 C153.182288,105.481673 153.999905,106.969222 154.149448,108.59175 C154.149448,108.746667 154.332106,108.777651 154.504425,108.805191 L154.504425,108.805191 L154.607817,108.825847 L174.086786,112.877785 L189.14749,97.837074 C191.422104,95.5615167 192.766194,94.218904 193.455471,92.9244867 L193.455471,92.9244867 L193.452025,92.9244867 Z M63.5715517,94.2464446 C64.3435419,95.200044 65.453278,96.3085609 66.983473,97.837074 L66.983473,97.837074 L75.9785384,106.822255 L90.9255111,100.498202 L91.004778,100.463777 C91.1770972,100.398367 91.3804339,100.319188 91.3804339,100.147058 C91.3804339,99.9886977 91.1943291,99.9577143 91.0254562,99.9301738 C90.9908913,99.9250598 90.9564217,99.9193214 90.9220647,99.9129607 L90.9220647,99.9129607 Z M150.52385,79.5637644 L108.20224,97.5926497 C108.24015,97.5960926 108.729537,99.3759156 108.764001,99.3828007 L108.764001,99.3828007 L142.514451,106.336848 C142.590272,106.354062 142.683324,106.367832 142.755698,106.333406 C142.834965,106.292095 142.879768,106.216358 142.928018,106.137178 L142.928018,106.137178 L142.945249,106.109637 C143.944121,104.41716 145.714744,103.326068 147.677136,103.193757 C147.839116,103.193757 147.863241,102.997528 147.887366,102.825399 L147.887366,102.825399 L147.901151,102.735891 L151.526749,80.4898233 C151.533642,80.4588399 151.533642,80.4381839 151.533642,80.4037582 C151.526749,80.3142504 151.440589,80.2591687 151.354429,80.2109728 L151.354429,80.2109728 L151.261377,80.1524483 C151.071826,80.0078593 150.875382,79.8529424 150.644474,79.6222883 C150.585885,79.5637644 150.52385,79.5637644 150.52385,79.5637644 L150.52385,79.5637644 Z M78.4943996,70.6612058 L66.983473,82.159483 C64.2056865,84.9342169 62.8202397,86.3181415 62.3101747,87.9223921 C62.1353856,88.4751143 62.0311696,89.047672 62,89.6230353 L62,89.6230353 L92.8417013,96.0847921 C92.9002898,96.0951195 92.9485392,96.1054475 92.9933422,96.0779064 C93.0678753,96.0224066 93.1271517,95.9489847 93.1656615,95.8644655 C93.5206391,95.2069292 94.0238114,94.6010321 94.5269836,94.0467739 C94.6338216,93.9434958 94.53043,93.805792 94.4373776,93.6818584 C89.1087003,86.0182349 83.794365,78.3446706 78.4943996,70.6612058 L78.4943996,70.6612058 Z M129.728362,65.9723874 C129.621524,65.924191 129.483669,65.889765 129.390616,65.958617 C129.344234,65.9977608 129.304642,66.0442883 129.27344,66.0963209 C127.963813,68.0448314 125.79259,69.1843313 123.449048,69.1843313 C123.135427,69.1843313 122.825252,69.1395775 122.473722,69.0913811 L122.473722,69.0913811 L122.318634,69.0672829 C122.153207,69.0672829 122.049816,69.229085 121.96021,69.3736742 L121.96021,69.3736742 L121.932639,69.4149853 L106.48594,93.3066154 C106.470227,93.3298227 106.454142,93.3527762 106.437691,93.3754673 C106.344639,93.506286 106.241247,93.650875 106.344639,93.7541532 C106.403227,93.8126771 106.465262,93.8126771 106.523851,93.8126771 C106.582439,93.8126771 145.409415,77.2744363 148.387092,76.0041178 L148.387092,76.0041178 L148.425002,75.9903475 C148.549072,75.9387087 148.683481,75.8836271 148.683481,75.7528084 L148.683481,75.7528084 L148.683481,75.2260907 C148.683481,74.9093717 148.73173,74.5960953 148.786872,74.3206875 C148.804808,74.256505 148.804808,74.1886419 148.786872,74.1244594 C148.74207,74.0177389 148.628339,73.9729851 148.524947,73.9247887 L148.524947,73.9247887 Z M97.053184,52.1228157 L81.575468,67.5835232 L98.1456881,91.726463 C98.1874896,91.7930163 98.2398722,91.8523178 98.3007754,91.9020354 C98.3559176,91.9433467 98.4179525,91.9295759 98.4868802,91.9192485 L98.4868802,91.9192485 C99.1106759,91.8056424 99.7241325,91.7023647 100.28934,91.7023647 C100.921136,91.711614 101.549493,91.7971526 102.160727,91.957117 C102.257226,91.9812153 102.374403,92.0053135 102.457116,91.9536742 C102.526044,91.9089205 102.563954,91.8503966 102.605311,91.7815446 L102.605311,91.7815446 L118.320827,67.4664749 L118.369076,67.3941803 C118.458683,67.2668042 118.562074,67.1187725 118.458683,67.0154945 C116.835926,65.3544782 116.158534,62.9894457 116.656223,60.7224255 C116.670008,60.6570161 116.683794,60.5778363 116.656223,60.5158696 C116.61142,60.4125916 116.518368,60.3712805 116.414976,60.3299693 C115.387953,59.8824316 112.12078,58.5053924 108.53654,56.9906493 C103.801206,54.9939424 98.5075586,52.7596964 97.053184,52.1228157 L97.053184,52.1228157 Z M175.785854,68.8159733 L162.069241,74.6133083 L162.027885,74.6305213 C161.900368,74.6821602 161.748727,74.744127 161.748727,74.8749457 C161.748727,75.0057645 161.896922,75.0642886 162.024438,75.1159276 C162.041746,75.1226216 162.058979,75.1295072 162.076134,75.1365832 L162.076134,75.1365832 L194,88.6418952 C193.95175,88.3974704 193.889716,88.1599313 193.813895,87.9223921 C193.307276,86.3181415 191.918383,84.9342169 189.144043,82.159483 L189.144043,82.159483 L175.785854,68.8159733 Z M160.104801,53.1521525 L157.440746,69.4218705 C157.421451,69.5377658 157.4571,69.6560427 157.537245,69.7420321 C157.561369,69.7661303 157.58894,69.7764582 157.616512,69.7867859 L157.616512,69.7867859 L157.664761,69.8074415 C158.308959,70.1367134 158.88719,70.5812875 159.370721,71.1190714 C159.405185,71.1534973 159.422417,71.1672677 159.439649,71.1776751 L159.439649,71.1776751 L159.491345,71.1776751 C159.530267,71.1785133 159.568967,71.1714846 159.605076,71.1569399 L159.605076,71.1569399 L172.597948,65.6350128 L160.104801,53.1521525 Z M143.279549,36.3453892 L129.266547,58.0440842 C129.183833,58.2058863 129.290671,58.371131 129.38717,58.5294906 C129.972754,59.4873438 130.337694,60.5633232 130.45555,61.6794677 C130.45555,61.8102864 130.60719,61.8722532 130.734707,61.9238922 L130.734707,61.9238922 L130.772617,61.9411052 L150.823686,70.4512073 C150.871074,70.4686816 150.921391,70.4768638 150.971881,70.4754927 C151.033915,70.4684204 151.071826,70.4305518 151.109736,70.3892406 C151.131002,70.3678086 151.154062,70.3482294 151.178664,70.3307164 C151.750903,69.9137242 152.389376,69.5960023 153.067283,69.3908872 C153.13621,69.3702316 153.205138,69.3564612 153.239602,69.2876092 C153.255056,69.2455581 153.264342,69.2014961 153.267173,69.1567905 L153.267173,69.1567905 L153.267173,69.1051515 L156.437847,49.4892283 L143.279549,36.3453892 Z M130.141928,24.3203945 C128.789484,23.8932018 127.338032,23.8932018 125.985588,24.3203945 C124.379573,24.8264564 122.990679,26.2138234 120.216339,28.9851147 L120.216339,28.9851147 L100.179055,49.0003794 C102.250333,49.8782419 116.725151,55.9888533 118.586199,56.7978638 C118.703376,56.8495027 118.841231,56.9045843 118.934284,56.8081916 C120.794699,55.3195229 123.270337,54.8429711 125.551343,55.5344303 C125.654735,55.5688563 125.775358,55.5929545 125.861518,55.5344303 C125.919468,55.4896142 125.967566,55.4333662 126.00282,55.3691856 L126.00282,55.3691856 L140.253622,33.3227882 L135.911177,28.9851147 C133.136837,26.2138234 131.747944,24.8264564 130.141928,24.3203945 Z" id="Combined-Shape" fill="#4A90E2"></path>
    </g>
</svg>